<?xml version="1.0" encoding="UTF-8" standalone="no"?>
<!-- Created with Inkscape (http://www.inkscape.org/) -->

<svg
   xmlns:dc="http://purl.org/dc/elements/1.1/"
   xmlns:cc="http://creativecommons.org/ns#"
   xmlns:rdf="http://www.w3.org/1999/02/22-rdf-syntax-ns#"
   xmlns:svg="http://www.w3.org/2000/svg"
   xmlns="http://www.w3.org/2000/svg"
   version="1.1"
   width="498.41522"
   height="433.9162"
   viewBox="-2 -2 502.5174 438.04005"
   id="svg2">
  <metadata
     id="metadata10">
    <rdf:RDF>
      <cc:Work
         rdf:about="">
        <dc:format>image/svg+xml</dc:format>
        <dc:type
           rdf:resource="http://purl.org/dc/dcmitype/StillImage" />
        <dc:title></dc:title>
      </cc:Work>
    </rdf:RDF>
  </metadata>
  <defs
     id="defs8" />
  <path
     d="m 6.2625222,427.46403 2,0 1,-1.732 1.0000008,1.732 2,0 1,-1.732 -1,-1.732 2,0 1,-1.732 1,1.732 2,0 -1,1.732 1,1.732 2,0 1,-1.732 1,1.732 2,0 1,-1.732 -1,-1.732 2,0 1,-1.732 -1,-1.732 -2,0 1,-1.732 -1,-1.732 2,0 1,-1.732 1,1.732 2,0 1,-1.732 -1,-1.732 2,0 1,-1.732 1,1.732 2,0 -1,1.732 1,1.732 2,0 1,-1.732 1,1.732 2,0 -1,1.732 1,1.732 -2,0 -1,1.732 1,1.732 2,0 -1,1.732 1,1.732 2,0 1,-1.732 1,1.732 2,0 1,-1.732 -1,-1.732 2,0 1,-1.732 1,1.732 2,0 -1,1.732 1,1.732 2,0 1,-1.732 1,1.732 2,0 1,-1.732 -1,-1.732 2,0 1,-1.732 -1,-1.732 -2,0 1,-1.732 -1,-1.732 2,0 1,-1.732 1,1.732 2,0 1,-1.732 -1,-1.732 2,0 1,-1.732 -1,-1.732 -2,0 1,-1.732 -1,-1.732 -2,0 -1,1.732 -1,-1.732 -2,0 1,-1.732 -1,-1.732 2,0 1,-1.732 -1,-1.732 -2,0 1,-1.733 -1,-1.732 2,0 1,-1.732 1,1.732 2,0 1,-1.732 -1,-1.732 2,0 1,-1.732 1,1.732 2,0 -1,1.732 1,1.732 2,0 1,-1.732 1,1.732 2,0 1,-1.732 -1,-1.732 2,0 1,-1.732 -1,-1.732 -2,0 1,-1.732 -1,-1.732 2,0 1,-1.732 1,1.732 2,0 1,-1.732 -1,-1.732 2,0 1,-1.732 1,1.732 2,0 -1,1.732 1,1.732 2,0 1,-1.732 1,1.732 2,0 -1,1.732 1,1.732 -2,0 -1,1.732 1,1.732 2,0 -1,1.732 1,1.732 2,0 1,-1.732 0.999997,1.732 2,0 1,-1.732 -1,-1.732 2,0 1,-1.732 0.99999,1.732 2,0 -1,1.732 1,1.732 2,0 1,-1.732 1,1.732 2,0 -1,1.732 1,1.733 -2,0 -1,1.732 1,1.732 2,0 -1,1.732 1,1.732 -2,0 -1,1.732 -1,-1.732 -2,0 -1,1.732 1,1.732 -2,0 -0.99999,1.732 0.99999,1.732 2,0 -1,1.732 1,1.732 2,0 1,-1.732 1,1.732 2,0 -1,1.732 1,1.732 -2,0 -1,1.732 1,1.732 2,0 -1,1.732 1,1.732 2,0 1,-1.732 1,1.732 2,0 1,-1.732 -1,-1.732 2,0 1,-1.732 1,1.732 2,0 -1,1.732 1,1.732 2,0 1,-1.732 1,1.732 2,0 1,-1.732 -1,-1.732 2,0 1,-1.732 -1,-1.732 -2,0 1,-1.732 -1,-1.732 2,0 1,-1.732 1,1.732 2,0 1,-1.732 -1,-1.732 2,0 1,-1.732 1,1.732 2,0 -1,1.732 1,1.732 2,0 1,-1.732 1,1.732 2,0 -1,1.732 1,1.732 -2,0 -1,1.732 1,1.732 2,0 -1,1.732 1,1.732 2,0 1,-1.732 1,1.732 2,0 1,-1.732 -1,-1.732 2,0 1,-1.732 1,1.732 2,0 -1,1.732 1,1.732 2,0 1,-1.732 1,1.732 2,0 1,-1.732 -1,-1.732 2,0 1,-1.732 -1,-1.732 -2,0 1,-1.732 -1,-1.732 2,0 1,-1.732 1,1.732 2,0 1,-1.732 -1,-1.732 2,0 1,-1.732 -1,-1.732 -2,0 1,-1.732 -1,-1.732 -2,0 -1,1.732 -1,-1.732 -2,0 1,-1.732 -1,-1.732 2,0 1,-1.732 -1,-1.732 -2,0 1,-1.733 -1,-1.732 2,0 1,-1.732 1,1.732 2,0 1,-1.732 -1,-1.732 2,0 1,-1.732 1,1.732 2,0 -1,1.732 1,1.732 2,0 1,-1.732 1,1.732 2,0 1,-1.732 -1,-1.732 2,0 1,-1.732 -1,-1.732 -2,0 1,-1.732 -1,-1.732 2,0 1,-1.732 1,1.732 2,0 1,-1.732 -1,-1.732 2,0 1,-1.732 -1,-1.732 -2,0 1,-1.732 -1,-1.732 -2,0 -1,1.732 -1,-1.732 -2,0 1,-1.732 -1,-1.732 2,0 1,-1.732 -1,-1.732 -2,0 1,-1.732 -1,-1.732 -2,0 -1,1.732 -1,-1.732 -2,0 -1,1.732 1,1.732 -2,0 -1,1.732 -1,-1.732 -2,0 1,-1.732 -1,-1.732 -2,0 -1,1.732 -1,-1.732 -2,0 1,-1.733 -1,-1.732 2,0 1,-1.732 -1,-1.732 -2,0 1,-1.732 -1,-1.732 2,0 1,-1.732 1,1.732 2,0 1,-1.732 -1,-1.732 2,0 1,-1.732 -1,-1.732 -2,0 1,-1.732 -1,-1.732 -2,0 -1,1.732 -1,-1.732 -2,0 1,-1.732 -1,-1.732 2,0 1,-1.732 -1,-1.732 -2,0 1,-1.732 -1,-1.732 2,0 1,-1.732 1,1.732 2,0 1,-1.732 -1,-1.732 2,0 1,-1.733 1,1.733 2,0 -1,1.732 1,1.732 2,0 1,-1.732 1,1.732 2,0 1,-1.732 -1,-1.732 2,0 1,-1.733 -1,-1.732 -2,0 1,-1.732 -1,-1.732 2,0 1,-1.732 1,1.732 2,0 1,-1.732 -1,-1.732 2,0 1,-1.732 1,1.732 2,0 -1,1.732 1,1.732 2,0 1,-1.732 1,1.732 2,0 -1,1.732 1,1.732 -2,0 -1,1.732 1,1.733 2,0 -1,1.732 1,1.732 2,0 1,-1.732 1,1.732 2,0 1,-1.732 -1,-1.732 2,0 1,-1.733 1,1.733 2,0 -1,1.732 1,1.732 2,0 1,-1.732 1,1.732 2,0 1,-1.732 -1,-1.732 2,0 1,-1.733 -1,-1.732 -2,0 1,-1.732 -1,-1.732 2,0 1,-1.732 1,1.732 2,0 1,-1.732 -1,-1.732 2,0 1,-1.732 -1,-1.732 -2,0 1,-1.732 -1,-1.732 -2,0 -1,1.732 -1,-1.732 -2,0 1,-1.732 -1,-1.732 2,0 1,-1.732 -1,-1.732 -2,0 1,-1.732 -1,-1.732 2,0 1,-1.732 1,1.732 2,0 1,-1.732 -1,-1.732 2,0 1,-1.732 1,1.732 2,0 -1,1.732 1,1.732 2,0 1,-1.732 1,1.732 2,0 1,-1.732 -1,-1.732 2,0 1,-1.732 -1,-1.733 -2,0 1,-1.732 -1,-1.732 2,0 1,-1.732 1,1.732 2,0 1,-1.732 -1,-1.732 2,0 1,-1.732 1,1.732 2,0 -1,1.732 1,1.732 2,0 1,-1.732 1,1.732 2,0 -1,1.732 1,1.732 -2,0 -1,1.733 1,1.732 2,0 -1,1.732 1,1.732 2,0 1,-1.732 1,1.732 2,0 1,-1.732 -1,-1.732 2,0 1,-1.732 1,1.732 2,0 -1,1.732 1,1.732 2,0 1,-1.732 1,1.732 2,0 -1,1.732 1,1.732 -2,0 -1,1.732 1,1.732 2,0 -1,1.732 1,1.732 -2,0 -1,1.732 -1,-1.732 -2,0 -1,1.732 1,1.732 -2,0 -1,1.732 1,1.732 2,0 -1,1.732 1,1.732 2,0 1,-1.732 1,1.732 2,0 -1,1.732 1,1.732 -2,0 -1,1.732 1,1.733 2,0 -1,1.732 1,1.732 2,0 1,-1.732 1,1.732 2,0 1,-1.732 -1,-1.732 2,0 1,-1.733 1,1.733 2,0 -1,1.732 1,1.732 2,0 1,-1.732 1,1.732 2,0 1,-1.732 -1,-1.732 2,0 1,-1.733 -1,-1.732 -2,0 1,-1.732 -1,-1.732 2,0 1,-1.732 1,1.732 2,0 1,-1.732 -1,-1.732 2,0 1,-1.732 1,1.732 2,0 -1,1.732 1,1.732 2,0 1,-1.732 1,1.732 2,0 -1,1.732 1,1.732 -2,0 -1,1.732 1,1.733 2,0 -1,1.732 1,1.732 2,0 1,-1.732 1,1.732 2,0 1,-1.732 -1,-1.732 2,0 1,-1.733 1,1.733 2,0 -1,1.732 1,1.732 2,0 1,-1.732 1,1.732 2,0 -1,1.732 1,1.732 -2,0 -1,1.732 1,1.732 2,0 -1,1.732 1,1.732 -2,0 -1,1.732 -1,-1.732 -2,0 -1,1.732 1,1.732 -2,0 -1,1.732 1,1.732 2,0 -1,1.732 1,1.732 2,0 1,-1.732 1,1.732 2,0 -1,1.732 1,1.732 -2,0 -1,1.732 1,1.732 2,0 -1,1.732 1,1.733 -2,0 -1,1.732 -1,-1.732 -2,0 -1,1.732 1,1.732 -2,0 -1,1.732 -1,-1.732 -2,0 1,-1.732 -1,-1.732 -2,0 -1,1.732 -1,-1.732 -2,0 -1,1.732 1,1.732 -2,0 -1,1.732 1,1.732 2,0 -1,1.732 1,1.732 -2,0 -1,1.732 -1,-1.732 -2,0 -1,1.732 1,1.732 -2,0 -1,1.732 1,1.732 2,0 -1,1.732 1,1.732 2,0 1,-1.732 1,1.732 2,0 -1,1.732 1,1.732 -2,0 -1,1.732 1,1.732 2,0 -1,1.732 1,1.732 2,0 1,-1.732 1,1.732 2,0 1,-1.732 -1,-1.732 2,0 1,-1.732 1,1.732 2,0 -1,1.732 1,1.732 2,0 1,-1.732 1,1.732 2,0 -1,1.732 1,1.733 -2,0 -1,1.732 1,1.732 2,0 -1,1.732 1,1.732 -2,0 -1,1.732 -1,-1.732 -2,0 -1,1.732 1,1.732 -2,0 -1,1.732 1,1.732 2,0 -1,1.732 1,1.732 2,0 1,-1.732 1,1.732 2,0 -1,1.732 1,1.732 -2,0 -1,1.732 1,1.732 2,0 -1,1.732 1,1.732 2,0 1,-1.732 1,1.732 2,0 1,-1.732 -1,-1.732 2,0 1,-1.732 1,1.732 2,0 -1,1.732 1,1.732 2,0 1,-1.732 1,1.732 2,0 1,-1.732 -1,-1.732 2,0 1,-1.732 -1,-1.732 -2,0 1,-1.732 -1,-1.732 2,0 1,-1.732 1,1.732 2,0 1,-1.732 -1,-1.732 2,0 1,-1.732 1,1.732 2,0 -1,1.732 1,1.732 2,0 1,-1.732 1,1.732 2,0 -1,1.732 1,1.732 -2,0 -1,1.732 1,1.732 2,0 -1,1.732 1,1.732 2,0 1,-1.732 1,1.732 2,0 1,-1.732 -1,-1.732 2,0 1,-1.732 1,1.732 2,0 -1,1.732 1,1.732 2,0 1,-1.732 1,1.732 2,0 1,-1.732 -1,-1.732 2,0 1,-1.732 -1,-1.732 -2,0 1,-1.732 -1,-1.732 2,0 1,-1.732 1,1.732 2,0 1,-1.732 -1,-1.732 2,0 1,-1.732 -1,-1.732 -2,0 1,-1.732 -1,-1.732 -2,0 -1,1.732 -1,-1.732 -2,0 1,-1.732 -1,-1.732 2,0 1,-1.732 -1,-1.732 -2,0 1,-1.733 -1,-1.732 2,0 1,-1.732 1,1.732 2,0 1,-1.732 -1,-1.732 2,0 1,-1.732 1,1.732 2,0 -1,1.732 1,1.732 2,0 1,-1.732 1,1.732 2,0 1,-1.732 -1,-1.732 2,0 1,-1.732 -1,-1.732 -2,0 1,-1.732 -1,-1.732 2,0 1,-1.732 1,1.732 2,0 1,-1.732 -1,-1.732 2,0 1,-1.732 1,1.732 2,0 -1,1.732 1,1.732 2,0 1,-1.732 1,1.732 2,0 -1,1.732 1,1.732 -2,0 -1,1.732 1,1.732 2,0 -1,1.732 1,1.732 2,0 1,-1.732 1,1.732 2,0 1,-1.732 -1,-1.732 2,0 1,-1.732 1,1.732 2,0 -1,1.732 1,1.732 2,0 1,-1.732 1,1.732 2,0 -1,1.732 1,1.733 -2,0 -1,1.732 1,1.732 2,0 -1,1.732 1,1.732 -2,0 -1,1.732 -1,-1.732 -2,0 -1,1.732 1,1.732 -2,0 -1,1.732 1,1.732 2,0 -1,1.732 1,1.732 2,0 1,-1.732 1,1.732 2,0 -1,1.732 1,1.732 -2,0 -1,1.732 1,1.732 2,0 -1,1.732 1,1.732 2,0 1,-1.732 1,1.732 2,0 1,-1.732 -1,-1.732 2,0 1,-1.732 1,1.732 2,0 -1,1.732 1,1.732 2,0 1,-1.732 1,1.732 2,0 1,-1.732 -1,-1.732 2,0 1,-1.732 -1,-1.732 -2,0 1,-1.732 -1,-1.732 2,0 1,-1.732 1,1.732 2,0 1,-1.732 -1,-1.732 2,0 1,-1.732 1,1.732 2,0 -1,1.732 1,1.732 2,0 1,-1.732 1,1.732 2,0 -1,1.732 1,1.732 -2,0 -1,1.732 1,1.732 2,0 -1,1.732 1,1.732 2,0 1,-1.732 1,1.732 2,0 1,-1.732 -1,-1.732 2,0 1,-1.732 1,1.732 2,0 -1,1.732 1,1.732 2,0 1,-1.732 1,1.732 2,0 -1,-1.732 -2,0 1,-1.732 -1,-1.732 -2,0 -1,1.732 -1,-1.732 -2,0 1,-1.732 -1,-1.732 2,0 1,-1.732 -1,-1.732 -2,0 1,-1.732 -1,-1.732 -2,0 -1,1.732 -1,-1.732 -2,0 -1,1.732 1,1.732 -2,0 -1,1.732 -1,-1.732 -2,0 1,-1.732 -1,-1.732 -2,0 -1,1.732 -1,-1.732 -2,0 1,-1.732 -1,-1.732 2,0 1,-1.732 -1,-1.732 -2,0 1,-1.732 -1,-1.732 2,0 1,-1.732 1,1.732 2,0 1,-1.732 -1,-1.733 2,0 1,-1.732 -1,-1.732 -2,0 1,-1.732 -1,-1.732 -2,0 -1,1.732 -1,-1.732 -2,0 1,-1.732 -1,-1.732 2,0 1,-1.732 -1,-1.732 -2,0 1,-1.732 -1,-1.732 -2,0 -1,1.732 -1,-1.732 -2,0 -1,1.732 1,1.732 -2,0 -1,1.732 -1,-1.732 -2,0 1,-1.732 -1,-1.732 -2,0 -1,1.732 -1,-1.732 -2,0 -1,1.732 1,1.732 -2,0 -1,1.732 1,1.732 2,0 -1,1.732 1,1.732 -2,0 -1,1.732 -1,-1.732 -2,0 -1,1.732 1,1.732 -2,0 -1,1.732 -1,-1.732 -2,0 1,-1.732 -1,-1.732 -2,0 -1,1.732 -1,-1.732 -2,0 1,-1.732 -1,-1.732 2,0 1,-1.732 -1,-1.732 -2,0 1,-1.732 -1,-1.732 -2,0 -1,1.732 -1,-1.732 -2,0 -1,1.732 1,1.732 -2,0 -1,1.732 -1,-1.732 -2,0 1,-1.732 -1,-1.732 -2,0 -1,1.732 -1,-1.732 -2,0 1,-1.732 -1,-1.732 2,0 1,-1.732 -1,-1.732 -2,0 1,-1.732 -1,-1.732 2,0 1,-1.732 1,1.732 2,0 1,-1.732 -1,-1.732 2,0 1,-1.732 -1,-1.733 -2,0 1,-1.732 -1,-1.732 -2,0 -1,1.732 -1,-1.732 -2,0 1,-1.732 -1,-1.732 2,0 1,-1.732 -1,-1.732 -2,0 1,-1.732 -1,-1.732 2,0 1,-1.732 1,1.732 2,0 1,-1.732 -1,-1.732 2,0 1,-1.732 1,1.732 2,0 -1,1.732 1,1.732 2,0 1,-1.732 1,1.732 2,0 1,-1.732 -1,-1.732 2,0 1,-1.732 -1,-1.732 -2,0 1,-1.732 -1,-1.732 2,0 1,-1.732 1,1.732 2,0 1,-1.732 -1,-1.732 2,0 1,-1.732 -1,-1.732 -2,0 1,-1.732 -1,-1.733 -2,0 -1,1.733 -1,-1.733 -2,0 1,-1.732 -1,-1.732 2,0 1,-1.732 -1,-1.732 -2,0 1,-1.732 -1,-1.732 -2,0 -1,1.732 -1,-1.732 -2,0 -1,1.732 1,1.732 -2,0 -1,1.732 -1,-1.732 -2,0 1,-1.732 -1,-1.732 -2,0 -1,1.732 -1,-1.732 -2,0 1,-1.732 -1,-1.732 2,0 1,-1.732 -1,-1.732 -2,0 1,-1.732 -1,-1.732 2,0 1,-1.732 1,1.732 2,0 1,-1.732 -1,-1.732 2,0 1,-1.732 -1,-1.732 -2,0 1,-1.732 -1,-1.732 -2,0 -1,1.732 -1,-1.732 -2,0 1,-1.733 -1,-1.732 2,0 1,-1.732 -1,-1.732 -2,0 1,-1.732 -1,-1.732 -2,0 -1,1.732 -1,-1.732 -2,0 -1,1.732 1,1.732 -2,0 -1,1.732 -1,-1.732 -2,0 1,-1.732 -1,-1.732 -2,0 -1,1.732 -1,-1.732 -2,0 -1,1.732 1,1.732 -2,0 -1,1.732 1,1.732 2,0 -1,1.732 1,1.733 -2,0 -1,1.732 -1,-1.732 -2,0 -1,1.732 1,1.732 -2,0 -1,1.732 -1,-1.732 -2,0 1,-1.732 -1,-1.732 -2,0 -1,1.732 -1,-1.732 -2,0 1,-1.733 -1,-1.732 2,0 1,-1.732 -1,-1.732 -2,0 1,-1.732 -1,-1.732 -2,0 -1,1.732 -1,-1.732 -2,0 -1,1.732 1,1.732 -2,0 -1,1.732 -1,-1.732 -2,0 1,-1.732 -1,-1.732 -2,0 -1,1.732 -1,-1.732 -2,0 -1,1.732 1,1.732 -2,0 -1,1.732 1,1.732 2,0 -1,1.732 1,1.733 -2,0 -1,1.732 -1,-1.732 -2,0 -1,1.732 1,1.732 -2,0 -1,1.732 1,1.732 2,0 -1,1.732 1,1.732 2,0 1,-1.732 1,1.732 2,0 -1,1.732 1,1.732 -2,0 -1,1.732 1,1.732 2,0 -1,1.732 1,1.732 -2,0 -1,1.732 -1,-1.732 -2,0 -1,1.732 1,1.732 -2,0 -1,1.732 -1,-1.732 -2,0 1,-1.732 -1,-1.732 -2,0 -1,1.732 -1,-1.732 -2,0 -1,1.732 1,1.732 -2,0 -1,1.732 1,1.732 2,0 -1,1.732 1,1.732 -2,0 -1,1.733 -1,-1.733 -2,0 -1,1.733 1,1.732 -2,0 -1,1.732 -1,-1.732 -2,0 1,-1.732 -1,-1.733 -2,0 -1,1.733 -1,-1.733 -2,0 1,-1.732 -1,-1.732 2,0 1,-1.732 -1,-1.732 -2,0 1,-1.732 -1,-1.732 -2,0 -1,1.732 -1,-1.732 -2,0 -1,1.732 1,1.732 -2,0 -1,1.732 -1,-1.732 -2,0 1,-1.732 -1,-1.732 -2,0 -1,1.732 -1,-1.732 -2,0 1,-1.732 -1,-1.732 2,0 1,-1.732 -1,-1.732 -2,0 1,-1.732 -1,-1.732 2,0 1,-1.732 1,1.732 2,0 1,-1.732 -1,-1.732 2,0 1,-1.732 -1,-1.732 -2,0 1,-1.732 -1,-1.732 -2,0 -1,1.732 -1,-1.732 -2,0 1,-1.733 -1,-1.732 2,0 1,-1.732 -1,-1.732 -2,0 1,-1.732 -1,-1.732 -2,0 -1,1.732 -1,-1.732 -2,0 -1,1.732 1,1.732 -2,0 -1,1.732 -1,-1.732 -2,0 1,-1.732 -1,-1.732 -2,0 -1,1.732 -1,-1.732 -2,0 -1,1.732 1,1.732 -2,0 -1,1.732 1,1.732 2,0 -1,1.732 1,1.733 -2,0 -1,1.732 -1,-1.732 -2,0 -1,1.732 1,1.732 -2,0 -1,1.732 -1,-1.732 -2,0 1,-1.732 -1,-1.732 -2,0 -1,1.732 -1,-1.732 -2,0 1,-1.733 -1,-1.732 2,0 1,-1.732 -1,-1.732 -2,0 1,-1.732 -1,-1.732 -2,0 -1,1.732 -1,-1.732 -2,0 -1,1.732 1,1.732 -2,0 -1,1.732 -1,-1.732 -2,0 1,-1.732 -1,-1.732 -2,0 -1,1.732 -1,-1.732 -2,0 1,-1.732 -1,-1.732 2,0 1,-1.732 -1,-1.732 -2,0 1,-1.732 -1,-1.732 2,0 1,-1.732 1,1.732 2,0 1,-1.732 -1,-1.732 2,0 1,-1.732 -1,-1.732 -2,0 1,-1.732 -1,-1.732 -2,0 -1,1.732 -1,-1.732 -2,0 1,-1.732 -1,-1.732 2,0 1,-1.733 -1,-1.732 -2,0 1,-1.732 -1,-1.732 2,0 1,-1.732 1,1.732 2,0 1,-1.732 -1,-1.732 2,0 1,-1.732 1,1.732 2,0 -1,1.732 1,1.732 2,0 1,-1.732 1,1.732 2,0 1,-1.732 -1,-1.732 2,0 1,-1.732 -1,-1.732 -2,0 1,-1.732 -1,-1.732 2,0 1,-1.732 1,1.732 2,0 1,-1.732 -1,-1.732 2,0 1,-1.732 -1,-1.732 -2,0 1,-1.732 -1,-1.732 -2,0 -1,1.732 -1,-1.732 -2,0 1,-1.732 -1,-1.732 2,0 1,-1.732 -1,-1.732 -2,0 1,-1.733 -1,-1.732 -2,0 -1,1.732 -1,-1.732 -2,0 -1,1.732 1,1.733 -2,0 -1,1.732 -1,-1.732 -2,0 1,-1.733 -1,-1.732 -2,0 -1,1.732 -1,-1.732 -2,0 1,-1.732 -1,-1.732 2,0 1,-1.732 -1,-1.732 -2,0 1,-1.732 -1,-1.732 2,0 1,-1.732 1,1.732 2,0 1,-1.732 -1,-1.732 2,0 1,-1.732 -1,-1.732 -2,0 1,-1.732 -1,-1.732 -2,0 -1,1.732 -1,-1.732 -2,0 1,-1.732 -1,-1.732 2,0 1,-1.732 -1,-1.732 -2,0 1,-1.732 -1,-1.733 2,0 1,-1.732 1,1.732 2,0 1,-1.732 -1,-1.732 2,0 1,-1.732 1,1.732 2,0 -1,1.732 1,1.732 2,0 1,-1.732 1,1.732 2,0 1,-1.732 -1,-1.732 2,0 1,-1.732 -1,-1.732 -2,0 1,-1.732 -1,-1.732 2,0 1,-1.732 1,1.732 2,0 1,-1.732 -1,-1.732 2,0 1,-1.732 1,1.732 2,0 -1,1.732 1,1.732 2,0 1,-1.732 1,1.732 2,0 -1,1.732 1,1.732 -2,0 -1,1.732 1,1.732 2,0 -1,1.732 1,1.732 2,0 1,-1.732 1,1.732 2,0 1,-1.732 -1,-1.732 2,0 1,-1.732 1,1.732 2,0 -1,1.732 1,1.732 2,0 1,-1.732 1,1.732 2,0 1,-1.732 -1,-1.732 2,0 1,-1.732 -1,-1.732 -2,0 1,-1.732 -1,-1.732 2,0 1,-1.732 1,1.732 2,0 1,-1.732 -1,-1.732 2,0 1,-1.732 -1,-1.732 -2,0 1,-1.732 -1,-1.732 -2,0 -1,1.732 -1,-1.732 -2,0 1,-1.732 -1,-1.732 2,0 1,-1.732 -1,-1.732 -2,0 1,-1.732 -1,-1.732 2,0 1,-1.732 1,1.732 2,0 1,-1.732 -1,-1.733 2,0 1,-1.732 1,1.732 2,0 -1,1.733 1,1.732 2,0 1,-1.732 1,1.732 2,0 1,-1.732 -1,-1.733 2,0 1,-1.732 -1,-1.732 -2,0 1,-1.732 -1,-1.732 2,0 1,-1.732 1,1.732 2,0 1,-1.732 -1,-1.732 2,0 1,-1.732 -1,-1.732 -2,0 1,-1.732 -1,-1.732 -2,0 -1,1.732 -1,-1.732 -2,0 1,-1.732 -1,-1.732 2,0 1,-1.732 -1,-1.732 -2,0 1,-1.732 -1,-1.732 -2,0 -1,1.732 -1,-1.732 -2,0 -1,1.732 1,1.732 -2,0 -1,1.732 -1,-1.732 -2,0 1,-1.732 -1,-1.732 -2,0 -1,1.732 -1,-1.732 -2,0 1,-1.732 -1,-1.732 2,0 1,-1.732 -1,-1.733 -2,0 1,-1.732 -1,-1.732 2,0 1,-1.732 1,1.732 2,0 1,-1.732 -1,-1.732 2,0 1,-1.732 -1,-1.732 -2,0 1,-1.732 -1,-1.732 -2,0 -1,1.732 -1,-1.732 -2,0 1,-1.732 -1,-1.732 2,0 1,-1.732 -1,-1.732 -2,0 1,-1.732 -1,-1.732 -2,0 -1,1.732 -1,-1.732 -2,0 -1,1.732 1,1.732 -2,0 -1,1.732 -1,-1.732 -2,0 1,-1.732 -1,-1.732 -2,0 -1,1.732 -1,-1.732 -2,0 -1,1.732 1,1.732 -2,0 -1,1.732 1,1.732 2,0 -1,1.732 1,1.732 -2,0 -1,1.732 -1,-1.732 -2,0 -1,1.732 1,1.732 -2,0 -1,1.732 -1,-1.732 -2,0 1,-1.732 -1,-1.732 -2,0 -1,1.732 -1,-1.732 -2,0 1,-1.732 -1,-1.732 2,0 1,-1.732 -1,-1.732 -2,0 1,-1.732 -1,-1.732 -2,0 -1,1.732 -1,-1.732 -2,0 -1,1.732 1,1.732 -2,0 -1,1.732 -1,-1.732 -2,0 1,-1.732 -1,-1.732 -2,0 -1,1.732 -1,-1.732 -2,0 1,-1.731999 -1,-1.732 2,0 1,-1.732 -1,-1.732 -2,0 1,-1.733 -1,-1.732 2,0 1,-1.732 1,1.732 2,0 1,-1.732 -1,-1.732 2,0 1,-1.732 -1,-1.732 -2,0 1,-1.732 -1,-1.732 -2,0 -1,1.732 -1,-1.732 -2,0 1,-1.732 -1,-1.732 2,0 1,-1.732 -1,-1.732 -2,0 1,-1.732 -1,-1.732 2,0 1,-1.732 1,1.732 2,0 1,-1.732 -1,-1.732 2,0 1,-1.732 1,1.732 2,0 -1,1.732 1,1.732 2,0 1,-1.732 1,1.732 2,0 1,-1.732 -1,-1.732 2,0 1,-1.732 -1,-1.732 -2,0 1,-1.732 -1,-1.732 2,0 1,-1.733 1,1.733 2,0 1,-1.733 -1,-1.732 2,0 1,-1.732 -1,-1.732 -2,0 1,-1.732 -1,-1.732 -2,0 -1,1.732 -1,-1.732 -2,0 1,-1.732 -1,-1.732 2,0 1,-1.732 -1,-1.732 -2,0 1,-1.732 -1,-1.732 -2,0 -1,1.732 -1,-1.732 -2,0 -1,1.732 1,1.732 -2,0 -1,1.732 -1,-1.732 -2,0 1,-1.732 -1,-1.732 -2,0 -1,1.732 -1,-1.732 -2,0 1,-1.732 -1,-1.732 2,0 1,-1.732 -1,-1.732 -2,0 1,-1.732 -1,-1.732 2,0 1,-1.732 1,1.732 2,0 1,-1.732 -1,-1.732 2,0 1,-1.733 -1,-1.732 -2,0 1,-1.732 -1,-1.732 -2,0 -1,1.732 -1,-1.732 -2,0 1,-1.732001 -1,-1.732 2,0 1,-1.732 -1,-1.732 -2,0 1,-1.7319996 -1,-1.732 -1,1.732 1,1.7319996 -2,0 -1,1.732 1,1.732 2,0 -1,1.732 1,1.732001 -2,0 -1,1.732 -1,-1.732 -2,0 -1,1.732 1,1.732 -2,0 -1,1.732 1,1.733 2,0 -1,1.732 1,1.732 2,0 1,-1.732 1,1.732 2,0 -1,1.732 1,1.732 -2,0 -1,1.732 1,1.732 2,0 -1,1.732 1,1.732 -2,0 -1,1.732 -1,-1.732 -2,0 -1,1.732 1,1.732 -2,0 -1,1.732 -1,-1.732 -2,0 1,-1.732 -1,-1.732 -2,0 -1,1.732 -1,-1.732 -2,0 -1,1.732 1,1.732 -2,0 -1,1.732 1,1.732 2,0 -1,1.732 1,1.732 -2,0 -1,1.732 -1,-1.732 -2,0 -1,1.732 1,1.732 -2,0 -1,1.732 1,1.732 2,0 -1,1.732 1,1.733 2,0 1,-1.733 1,1.733 2,0 -1,1.732 1,1.732 -2,0 -1,1.732 1,1.732 2,0 -1,1.732 1,1.732 2,0 1,-1.732 1,1.732 2,0 1,-1.732 -1,-1.732 2,0 1,-1.732 1,1.732 2,0 -1,1.732 1,1.732 2,0 1,-1.732 1,1.732 2,0 -1,1.732 1,1.732 -2,0 -1,1.732 1,1.732 2,0 -1,1.732 1,1.732 -2,0 -1,1.732 -1,-1.732 -2,0 -1,1.732 1,1.732 -2,0 -1,1.732 1,1.732 2,0 -1,1.732 1,1.732 2,0 1,-1.732 1,1.732 2,0 -1,1.732 1,1.733 -2,0 -1,1.732 1,1.732 2,0 -1,1.732 1,1.731999 -2,0 -1,1.732 -1,-1.732 -2,0 -1,1.732 1,1.732 -2,0 -1,1.732 -1,-1.732 -2,0 1,-1.732 -1,-1.732 -2,0 -1,1.732 -1,-1.732 -2,0 -1,1.732 1,1.732 -2,0 -1,1.732 1,1.732 2,0 -1,1.732 1,1.732 -2,0 -1,1.732 -1,-1.732 -2,0 -1,1.732 1,1.732 -2,0 -1,1.732 -1,-1.732 -2,0 1,-1.732 -1,-1.732 -2,0 -1,1.732 -1,-1.732 -2,0 1,-1.732 -1,-1.732 2,0 1,-1.732 -1,-1.732 -2,0 1,-1.732 -1,-1.732 -2,0 -1,1.732 -1,-1.732 -2,0 -1,1.732 1,1.732 -2,0 -1,1.732 -1,-1.732 -2,0 1,-1.732 -1,-1.732 -2,0 -1,1.732 -1,-1.732 -2,0 -1,1.732 1,1.732 -2,0 -1,1.732 1,1.732 2,0 -1,1.732 1,1.732 -2,0 -1,1.732 -1,-1.732 -2,0 -1,1.732 1,1.732 -2,0 -1,1.732 1,1.732 2,0 -1,1.732 1,1.732 2,0 1,-1.732 1,1.732 2,0 -1,1.732 1,1.732 -2,0 -1,1.733 1,1.732 2,0 -1,1.732 1,1.732 -2,0 -1,1.732 -1,-1.732 -2,0 -1,1.732 1,1.732 -2,0 -1,1.732 -1,-1.732 -2,0 1,-1.732 -1,-1.732 -2,0 -1,1.732 -1,-1.732 -2,0 -1,1.732 1,1.732 -2,0 -1,1.732 1,1.732 2,0 -1,1.732 1,1.732 -2,0 -1,1.732 -1,-1.732 -2,0 -1,1.732 1,1.732 -2,0 -1,1.732 1,1.732 2,0 -1,1.732 1,1.732 2,0 1,-1.732 1,1.732 2,0 -1,1.732 1,1.732 -2,0 -1,1.732 1,1.732 2,0 -1,1.733 1,1.732 2,0 1,-1.732 1,1.732 2,0 1,-1.732 -1,-1.733 2,0 1,-1.732 1,1.732 2,0 -1,1.733 1,1.732 2,0 1,-1.732 1,1.732 2,0 -1,1.732 1,1.732 -2,0 -1,1.732 1,1.732 2,0 -1,1.732 1,1.732 -2,0 -1,1.732 -1,-1.732 -2,0 -1,1.732 1,1.732 -2,0 -1,1.732 1,1.732 2,0 -1,1.732 1,1.732 2,0 1,-1.732 1,1.732 2,0 -1,1.732 1,1.732 -2,0 -1,1.732 1,1.732 2,0 -1,1.732 1,1.732 2,0 1,-1.732 1,1.732 2,0 1,-1.732 -1,-1.732 2,0 1,-1.732 1,1.732 2,0 -1,1.732 1,1.732 2,0 1,-1.732 1,1.732 2,0 1,-1.732 -1,-1.732 2,0 1,-1.732 -1,-1.732 -2,0 1,-1.732 -1,-1.732 2,0 1,-1.732 1,1.732 2,0 1,-1.732 -1,-1.732 2,0 1,-1.732 1,1.732 2,0 -1,1.732 1,1.732 2,0 1,-1.732 1,1.732 2,0 -1,1.732 1,1.732 -2,0 -1,1.732 1,1.732 2,0 -1,1.732 1,1.732 2,0 1,-1.732 1,1.732 2,0 1,-1.732 -1,-1.732 2,0 1,-1.732 1,1.732 2,0 -1,1.732 1,1.732 2,0 1,-1.732 1,1.732 2,0 -1,1.733 1,1.732 -2,0 -1,1.732 1,1.732 2,0 -1,1.732 1,1.732 -2,0 -1,1.732 -1,-1.732 -2,0 -1,1.732 1,1.732 -2,0 -1,1.732 1,1.732 2,0 -1,1.732 1,1.732 2,0 1,-1.732 1,1.732 2,0 -1,1.732 1,1.732 -2,0 -1,1.732 1,1.732 2,0 -1,1.732 1,1.732 -2,0 -1,1.732 -1,-1.732 -2,0 -1,1.732 1,1.733 -2,0 -1,1.732 -1,-1.732 -2,0 1,-1.733 -1,-1.732 -2,0 -1,1.732 -1,-1.732 -2,0 -1,1.732 1,1.733 -2,0 -1,1.732 1,1.732 2,0 -1,1.732 1,1.732 -2,0 -1,1.732 -1,-1.732 -2,0 -1,1.732 1,1.732 -2,0 -1,1.732 1,1.732 2,0 -1,1.732 1,1.732 2,0 1,-1.732 1,1.732 2,0 -1,1.732 1,1.732 -2,0 -1,1.732 1,1.732 2,0 -1,1.732 1,1.732 2,0 1,-1.732 1,1.732 2,0 1,-1.732 -1,-1.732 2,0 1,-1.732 1,1.732 2,0 -1,1.732 1,1.732 2,0 1,-1.732 1,1.732 2,0 -1,1.732 1,1.732 -2,0 -1,1.732 1,1.733 2,0 -1,1.732 1,1.732 -2,0 -1,1.732 -1,-1.732 -2,0 -1,1.732 1,1.732 -2,0 -1,1.732 1,1.732 2,0 -1,1.732 1,1.732 2,0 1,-1.732 1,1.732 2,0 -1,1.732 1,1.732 -2,0 -1,1.732 1,1.732 2,0 -1,1.732 1,1.732 -2,0 -1,1.732 -1,-1.732 -2,0 -1,1.732 1,1.732 -2,0 -1,1.732 -1,-1.732 -2,0 1,-1.732 -1,-1.732 -2,0 -1,1.732 -1,-1.732 -2,0 -1,1.732 1,1.732 -2,0 -1,1.732 1,1.732 2,0 -1,1.732 1,1.733 -2,0 -1,1.732 -1,-1.732 -2,0 -1,1.732 1,1.732 -2,0 -1,1.732 -1,-1.732 -2,0 1,-1.732 -1,-1.732 -2,0 -1,1.732 -1,-1.732 -2,0 1,-1.733 -1,-1.732 2,0 1,-1.732 -1,-1.732 -2,0 1,-1.732 -1,-1.732 -2,0 -1,1.732 -1,-1.732 -2,0 -1,1.732 1,1.732 -2,0 -1,1.732 -1,-1.732 -2,0 1,-1.732 -1,-1.732 -2,0 -1,1.732 -1,-1.732 -2,0 -1,1.732 1,1.732 -2,0 -1,1.732 1,1.732 2,0 -1,1.732 1,1.733 -2,0 -1,1.732 -1,-1.732 -2,0 -1,1.732 1,1.732 -2,0 -1,1.732 1,1.732 2,0 -1,1.732 1,1.732 2,0 1,-1.732 1,1.732 2,0 -1,1.732 1,1.732 -2,0 -1,1.732 1,1.732 2,0 -1,1.732 1,1.732 -2,0 -1,1.732 -1,-1.732 -2,0 -1,1.732 1,1.732 -2,0 -1,1.732 -1,-1.732 -2,0 1,-1.732 -1,-1.732 -2,0 -1,1.732 -1,-1.732 -2,0 -1,1.732 1,1.732 -2,0 -1,1.732 1,1.732 2,0 -1,1.732 1,1.732 -2,0 -1,1.733 -1,-1.733 -2,0 -1,1.733 1,1.732 -2,0 -1,1.732 -1,-1.732 -2,0 1,-1.732 -1,-1.733 -2,0 -1,1.733 -1,-1.733 -2,0 1,-1.732 -1,-1.732 2,0 1,-1.732 -1,-1.732 -2,0 1,-1.732 -1,-1.732 -2,0 -1,1.732 -1,-1.732 -2,0 -1,1.732 1,1.732 -2,0 -1,1.732 -1,-1.732 -2,0 1,-1.732 -1,-1.732 -2,0 -1,1.732 -1,-1.732 -2,0 1,-1.732 -1,-1.732 2,0 1,-1.732 -1,-1.732 -2,0 1,-1.732 -1,-1.732 2,0 1,-1.732 1,1.732 2,0 1,-1.732 -1,-1.732 2,0 1,-1.732 -1,-1.732 -2,0 1,-1.732 -1,-1.732 -2,0 -1,1.732 -1,-1.732 -2,0 1,-1.733 -1,-1.732 2,0 1,-1.732 -1,-1.732 -2,0 1,-1.732 -1,-1.732 -2,0 -1,1.732 -1,-1.732 -2,0 -1,1.732 1,1.732 -2,0 -1,1.732 -1,-1.732 -2,0 1,-1.732 -1,-1.732 -2,0 -1,1.732 -1,-1.732 -2,0 -1,1.732 1,1.732 -2,0 -1,1.732 1,1.732 2,0 -1,1.732 1,1.733 -2,0 -1,1.732 -1,-1.732 -2,0 -1,1.732 1,1.732 -2,0 -1,1.732 -1,-1.732 -2,0 1,-1.732 -1,-1.732 -2,0 -1,1.732 -1,-1.732 -1.99999,0 0.99999,-1.733 -0.99999,-1.732 1.99999,0 1,-1.732 -1,-1.732 -1.99999,0 0.99999,-1.732 -0.99999,-1.732 -2,0 -1,1.732 -1,-1.732 -1.999997,0 -1,1.732 1,1.732 -2,0 -1,1.732 -1,-1.732 -2,0 1,-1.732 -1,-1.732 -2,0 -1,1.732 -1,-1.732 -2,0 -1,1.732 1,1.732 -2,0 -1,1.732 1,1.732 2,0 -1,1.732 1,1.733 -2,0 -1,1.732 -1,-1.732 -2,0 -1,1.732 1,1.732 -2,0 -1,1.732 1,1.732 2,0 -1,1.732 1,1.732 2,0 1,-1.732 1,1.732 2,0 -1,1.732 1,1.732 -2,0 -1,1.732 1,1.732 2,0 -1,1.732 1,1.732 -2,0 -1,1.732 -1,-1.732 -2,0 -1,1.732 1,1.732 -2,0 -1,1.732 -1,-1.732 -2,0 1,-1.732 -1,-1.732 -2,0 -1,1.732 -1,-1.732 -2,0 -1,1.732 1,1.732 -2,0 -1,1.732 1,1.732 2,0 -1,1.732 1,1.732 -2,0 -1,1.733 -1,-1.733 -2,0 -1,1.733 1,1.732 -2,0 -1,1.732 1,1.732 2,0 -1,1.732 1,1.732 2,0 1,-1.732 1,1.732 2,0 -1,1.732 1,1.732 -2,0 -1,1.732 1,1.732 2,0 -1,1.732 1,1.732 2,0 1,-1.732 1,1.732 2,0 1,-1.732 -1,-1.732 2,0 1,-1.732 1,1.732 2,0 -1,1.732 1,1.732 2,0 1,-1.732 1,1.732 2,0 -1,1.732 1,1.732 -2,0 -1,1.732 1,1.732 2,0 -1,1.732 1,1.732 -2,0 -1,1.732 -1,-1.732 -2,0 -1,1.732 1,1.732 -2,0 -1,1.733 1,1.732 2,0 -1,1.732 1,1.732 2,0 1,-1.732 1,1.732 2,0 -1,1.732 1,1.732 -2,0 -1,1.732 1,1.732 2,0 -1,1.732 1,1.732 -2,0 -1,1.732 -1,-1.732 -2,0 -1,1.732 1,1.732 -2,0 -1,1.732 -1,-1.732 -2,0 1,-1.732 -1,-1.732 -2,0 -1,1.732 -1,-1.732 -2,0 -1,1.732 1,1.732 -2,0 -1,1.732 1,1.732 2,0 -1,1.732 1,1.732 -2,0 -1,1.732 -1,-1.732 -2,0 -1,1.732 1,1.732 -2,0 -1,1.732 -1,-1.732 -2,0 1,-1.732 -1,-1.732 -2,0 -1,1.732 -1,-1.732 -2,0 1,-1.732 -1,-1.732 2,0 1,-1.732 -1,-1.732 -2,0 1,-1.732 -1,-1.732 -2,0 -1,1.732 -1,-1.732 -2,0 -1,1.732 1,1.732 -2,0 -1,1.732 -1,-1.732 -2,0 1,-1.732 -1,-1.732 -2,0 -1,1.732 -1,-1.732 -2,0 -1,1.732 1,1.732 -2,0 -1,1.732 1,1.732 2,0 -1,1.732 1,1.732 -2,0 -1,1.732 -1,-1.732 -2,0 -1,1.732 1,1.732 -2,0 -1,1.732 1,1.732 2,0 -1,1.733 1,1.732 2,0 1,-1.732 1,1.732 2,0 -1,1.732 1,1.732 -2,0 -1,1.732 1,1.732 2,0 -1,1.732 1,1.732 -2,0 -1,1.732 -1,-1.732 -2,0 -1,1.732 1,1.732 -2,0 -1,1.732 -1,-1.732 -2,0 1,-1.732 -1,-1.732 -2,0 -1,1.732 -1,-1.732 -2,0 -1,1.732 1,1.732 -2,0 -1,1.732 1,1.732 2,0 -1,1.732 1,1.732 -2,0 -1,1.732 -1,-1.732 -2.0000008,0 -1,1.732 1,1.732 -2,0 -1,1.732"
     id="path4"
     style="fill:#ddddff;fill-opacity:1;stroke:#000000;stroke-width:1.21140456;stroke-miterlimit:4;stroke-dasharray:none" />
</svg>
